<?xml version="1.0" standalone="no"?>
<!DOCTYPE svg PUBLIC "-//W3C//DTD SVG 20010904//EN"
 "http://www.w3.org/TR/2001/REC-SVG-20010904/DTD/svg10.dtd">
<svg version="1.0" xmlns="http://www.w3.org/2000/svg"
 width="876.000000pt" height="876.000000pt" viewBox="0 0 876.000000 876.000000"
 preserveAspectRatio="xMidYMid meet">
<metadata>
Created by potrace 1.11, written by Peter Selinger 2001-2013
</metadata>
<g transform="translate(0.000000,876.000000) scale(0.100000,-0.100000)"
fill="#000000" stroke="none">
<path d="M0 4380 l0 -4380 4380 0 4380 0 0 4380 0 4380 -4380 0 -4380 0 0
-4380z m6959 3360 c82 -89 408 -451 936 -1039 66 -74 148 -166 183 -204 l62
-69 -62 -72 c-90 -105 -387 -442 -568 -645 -85 -96 -175 -197 -199 -225 -24
-28 -57 -67 -75 -86 -17 -19 -125 -143 -241 -275 l-210 -239 -3 438 -2 438
-323 -4 c-284 -4 -335 -7 -432 -27 -295 -61 -587 -232 -853 -501 -269 -271
-464 -529 -1007 -1330 -65 -96 -131 -193 -147 -215 -16 -22 -84 -117 -151
-212 -662 -932 -1237 -1403 -1930 -1579 -194 -49 -264 -54 -804 -54 l-503 0 0
584 0 584 473 5 c504 6 547 10 698 60 123 42 281 123 387 199 344 249 603 557
1159 1378 503 742 721 1032 1015 1350 356 385 767 670 1160 806 303 104 444
124 921 131 l337 5 0 497 1 496 41 -45 c22 -25 84 -92 137 -150z m-5302 -830
c359 -32 736 -169 1066 -388 178 -118 302 -218 461 -373 l130 -126 -150 -209
c-82 -115 -198 -283 -259 -372 -60 -90 -136 -200 -168 -245 -32 -45 -62 -88
-66 -95 -5 -9 -41 22 -117 98 -311 317 -604 481 -939 526 -106 14 -209 18
-557 18 l-428 1 0 588 0 587 458 0 c251 0 507 -5 569 -10z m5318 -3255 c87
-99 196 -225 244 -279 84 -97 221 -253 412 -467 52 -58 155 -175 230 -260 74
-85 168 -191 207 -236 l72 -81 -392 -439 c-553 -618 -842 -939 -907 -1006
l-56 -58 -5 498 -5 498 -385 6 c-228 4 -416 11 -460 18 -428 71 -863 278
-1226 587 -110 93 -279 253 -330 311 l-45 53 154 212 c139 192 283 398 443
636 l55 83 126 -130 c200 -209 378 -348 569 -445 256 -129 362 -149 794 -150
l305 -1 3 435 c2 425 3 434 21 415 10 -11 89 -101 176 -200z"/>
</g>
</svg>
